<svg xmlns="http://www.w3.org/2000/svg" aria-hidden="true" style="position:absolute;width:0;height:0;overflow:hidden">
  <defs>
    <symbol id="icon-tv" viewBox="0 0 32 32">
      <path stroke-linecap="round" stroke-linejoin="round" stroke-width="1.8" d="M24 26H8c-2.216 0-4-1.784-4-4V12c0-2.216 1.784-4 4-4h16c2.216 0 4 1.784 4 4v10c0 2.216-1.784 4-4 4zM12 30h8M16 8l6-6M16 8l-6-6"/>
    </symbol>
    <symbol id="icon-shower" viewBox="0 0 32 32">
      <path stroke-linecap="round" stroke-linejoin="round" stroke-width="2" d="m5.333 5.333 3.333 3.333M18 8.667a6.6 6.6 0 0 0-9.334 9.334M20 6.667 6.667 20m12 2.667v.013m-5.334-1.347v.013m4-4.013v.013m4-4.013v.013m-6.666 13.321v.013m8-8.013v.013m4-4.013v.013"/>
    </symbol>
    <symbol id="icon-like-pressed" viewBox="0 0 32 32">
      <path fill="#e44848" stroke="#e44848" stroke-linecap="round" stroke-linejoin="round" stroke-width="3.067" d="M27.787 6.147a7.326 7.326 0 0 0-10.373 0L16.001 7.56l-1.413-1.413a7.333 7.333 0 0 0-10.374 0 7.333 7.333 0 0 0 0 10.374l11.787 11.787 11.787-11.787a7.345 7.345 0 0 0 2.15-5.187 7.33 7.33 0 0 0-2.15-5.187z" style="fill:var(--color1, #e44848);stroke:var(--color1, #e44848)"/>
    </symbol>
    <symbol id="icon-like-default" viewBox="0 0 32 32">
      <path stroke-linecap="round" stroke-linejoin="round" stroke-width="3.067" d="M27.787 6.147a7.326 7.326 0 0 0-10.373 0L16.001 7.56l-1.413-1.413a7.333 7.333 0 0 0-10.374 0 7.333 7.333 0 0 0 0 10.374l11.787 11.787 11.787-11.787a7.345 7.345 0 0 0 2.15-5.187 7.33 7.33 0 0 0-2.15-5.187z"/>
    </symbol>
    <symbol id="icon-camper-alcove" viewBox="0 0 46 32">
      <path d="M2.608 1.8h12.409c.105 0 .203-.04.278-.112L16.487.525a1.845 1.845 0 0 1 1.297-.524h18.817c.876 0 1.69.425 2.176 1.136l2.255 3.3c.32.468.349 1.067.077 1.564s-.8.805-1.377.805h-9.698v.956h4.967c1.317 0 2.501.763 3.018 1.945l2.908 6.65 2.548.994c1.36.531 2.24 1.797 2.24 3.227v6.158c0 .918-.766 1.666-1.708 1.666h-2.964c-.345 2.039-2.164 3.599-4.35 3.599s-4.005-1.561-4.35-3.599H16.14c-.345 2.039-2.164 3.599-4.35 3.599s-4.005-1.561-4.35-3.599H1.519c-.837 0-1.518-.664-1.518-1.481V4.345c0-1.403 1.17-2.544 2.608-2.544zm34.084 28.794c1.637 0 2.969-1.299 2.969-2.896s-1.332-2.896-2.969-2.896c-1.637 0-2.969 1.299-2.969 2.896s1.332 2.896 2.969 2.896zm-6.658-3.599h2.307l.02-.105.014-.071c.012-.055.025-.11.039-.164.003-.011.005-.023.009-.034a3.34 3.34 0 0 1 .057-.195l.019-.056a5.274 5.274 0 0 1 .122-.321l.033-.075c.016-.037.032-.072.05-.108l.038-.075.054-.103.041-.074.059-.101.043-.071.066-.101.044-.065.077-.105.04-.055.109-.135.016-.02c.043-.051.087-.1.132-.148l.043-.044.096-.099.056-.053.09-.084.062-.054.09-.077.066-.052.093-.071a1.22 1.22 0 0 1 .069-.05l.097-.068.069-.046c.034-.023.069-.044.104-.065l.068-.041c.038-.023.077-.044.116-.065l.059-.033.168-.084.013-.006c.061-.029.123-.056.186-.082l.061-.024.13-.05.075-.026.12-.039.082-.024c.039-.011.078-.023.118-.033.028-.007.056-.015.085-.021l.118-.026.087-.018c.04-.007.081-.015.122-.021l.086-.014.128-.016.082-.009.143-.011.07-.005a3.893 3.893 0 0 1 .502.005c.048.003.096.006.143.011.028.002.055.006.082.009l.128.016c.029.004.058.008.087.014.041.006.081.014.122.021l.087.018a4.084 4.084 0 0 1 .321.08l.082.024.12.039.075.026.13.05.061.024c.062.026.125.053.186.082l.013.006c.057.027.112.055.168.084l.059.033.116.065.068.041.104.065.069.046c.033.023.065.044.097.068l.069.05.093.071.066.052c.031.025.061.051.09.077l.062.054.09.084.056.053.096.099.043.044c.045.048.089.098.132.148l.016.02c.037.044.073.089.109.135l.04.055.077.105.044.065.066.101.043.071.059.101.041.074.054.103.038.075.05.108c.011.025.023.049.033.075.017.038.032.077.047.116a2.087 2.087 0 0 1 .075.205l.019.056c.02.064.039.129.056.195l.009.034c.014.055.027.109.039.164l.014.071.02.105h2.963a.263.263 0 0 0 .266-.26v-2.946h-1.124v-1.406h1.124v-1.806c0-.851-.523-1.606-1.333-1.922l-2.697-1.052H30.031v9.392zm0-10.798h9.257l-2.598-5.939a1.84 1.84 0 0 0-1.692-1.09h-4.967v7.03zM11.789 30.594c1.637 0 2.969-1.299 2.969-2.896s-1.332-2.896-2.969-2.896c-.051 0-.102.001-.153.004-1.364.067-2.488 1.038-2.756 2.309a2.812 2.812 0 0 0-.061.583c0 1.597 1.332 2.896 2.969 2.896zM1.441 22.383h1.124v1.406H1.441v3.131c0 .041.035.075.077.075h5.92l.02-.104.014-.072c.012-.054.024-.107.038-.16l.009-.038a4.26 4.26 0 0 1 .056-.193l.02-.058.046-.132.028-.072.046-.114a2.049 2.049 0 0 1 .084-.182l.038-.076.054-.102.042-.074.059-.1a2.156 2.156 0 0 1 .11-.171 1.08 1.08 0 0 1 .044-.066l.076-.104.042-.057.106-.132a3.757 3.757 0 0 1 .15-.171l.043-.045c.032-.033.063-.066.096-.098l.056-.053.089-.083.062-.055c.029-.025.059-.051.09-.075l.066-.053.092-.071.069-.05.096-.067.07-.047c.034-.023.069-.044.103-.065l.069-.042c.038-.023.077-.044.116-.065.02-.011.04-.023.061-.033.055-.029.11-.057.167-.083l.014-.007c.061-.029.123-.056.186-.082l.061-.024.13-.05.076-.026c.039-.014.079-.027.119-.039l.082-.024c.039-.011.078-.023.118-.033.028-.007.056-.015.085-.021l.118-.026.087-.018c.04-.007.081-.015.122-.021l.086-.014.128-.016.082-.009.143-.011.07-.005a3.893 3.893 0 0 1 .502.005c.048.003.096.006.143.011.028.002.055.006.082.009l.128.016c.029.004.058.008.086.014.041.006.081.014.122.021l.087.018a4.084 4.084 0 0 1 .321.08l.082.024c.04.012.08.026.119.039l.076.026.13.05.061.024c.062.026.124.053.186.082l.014.007c.056.026.112.054.167.083l.06.033.116.065.069.042c.035.021.069.042.103.065l.07.047c.032.022.065.044.096.067l.069.05.092.071c.023.017.044.035.066.053.031.025.061.05.09.076l.062.054.09.084.056.053.096.098.043.044c.045.048.089.098.132.148l.017.021c.036.044.073.088.107.134l.042.055.077.105.044.066c.023.033.044.066.066.1l.044.071.059.101.041.074.055.103a2.6 2.6 0 0 1 .087.183 2.343 2.343 0 0 1 .08.191l.028.071c.017.045.032.09.047.135l.019.055c.02.064.039.129.057.195l.007.031c.014.056.028.111.04.168l.013.069.021.106h12.453V6.106c0-.388.323-.703.721-.703h10.419c.018 0 .073 0 .107-.062s.004-.106-.006-.12l-2.255-3.3a1.18 1.18 0 0 0-.977-.51H17.784a.397.397 0 0 0-.278.112l-1.192 1.163a1.845 1.845 0 0 1-1.297.524H2.608c-.643 0-1.167.511-1.167 1.138v18.039z"/>
      <path d="M20.116 7.198h4.558c.921 0 1.67.731 1.67 1.629v15.046a.712.712 0 0 1-.721.703h-6.456a.712.712 0 0 1-.721-.703V8.827c-.001-.899.748-1.629 1.669-1.629zm-.229 15.972h5.015v-8.267h-5.015v8.267zm0-9.673h5.015V8.828a.226.226 0 0 0-.229-.223h-4.558c-.126 0-.229.1-.229.223v4.669h.001zM5.536 7.198h8.814c1.019 0 1.848.809 1.848 1.802v4.1c0 .994-.829 1.802-1.848 1.802H5.535c-1.019 0-1.848-.809-1.848-1.802V9c.001-.994.83-1.802 1.848-1.802zM5.129 13.1c0 .218.182.396.406.396h8.814a.402.402 0 0 0 .406-.396V9a.402.402 0 0 0-.406-.396H5.534A.402.402 0 0 0 5.128 9v4.1h.001z"/>
    </symbol>
    <symbol id="icon-camper-integrated" viewBox="0 0 46 32">
      <path d="M2.608 1.8h12.409c.105 0 .203-.04.278-.112L16.487.525a1.845 1.845 0 0 1 1.297-.524h18.817c.876 0 1.69.425 2.176 1.136l2.255 3.3c.32.468.349 1.067.077 1.564s-.8.805-1.377.805h-9.698v.956h4.967c1.317 0 2.501.763 3.018 1.945l2.908 6.65 2.548.994c1.36.531 2.24 1.797 2.24 3.227v6.158c0 .918-.766 1.666-1.708 1.666h-2.964c-.345 2.039-2.164 3.599-4.35 3.599s-4.005-1.561-4.35-3.599H16.14c-.345 2.039-2.164 3.599-4.35 3.599s-4.005-1.561-4.35-3.599H1.519c-.837 0-1.518-.664-1.518-1.481V4.345c0-1.403 1.17-2.544 2.608-2.544zm34.084 28.794c1.637 0 2.969-1.299 2.969-2.896s-1.332-2.896-2.969-2.896c-1.637 0-2.969 1.299-2.969 2.896s1.332 2.896 2.969 2.896zm-6.658-3.599h2.307l.02-.105.014-.071c.012-.055.025-.11.039-.164.003-.011.005-.023.009-.034a3.34 3.34 0 0 1 .057-.195l.019-.056a5.274 5.274 0 0 1 .122-.321l.033-.075c.016-.037.032-.072.05-.108l.038-.075.054-.103.041-.074.059-.101.043-.071.066-.101.044-.065.077-.105.04-.055.109-.135.016-.02c.043-.051.087-.1.132-.148l.043-.044.096-.099.056-.053.09-.084.062-.054.09-.077.066-.052.093-.071a1.22 1.22 0 0 1 .069-.05l.097-.068.069-.046c.034-.023.069-.044.104-.065l.068-.041c.038-.023.077-.044.116-.065l.059-.033.168-.084.013-.006c.061-.029.123-.056.186-.082l.061-.024.13-.05.075-.026.12-.039.082-.024c.039-.011.078-.023.118-.033.028-.007.056-.015.085-.021l.118-.026.087-.018c.04-.007.081-.015.122-.021l.086-.014.128-.016.082-.009.143-.011.07-.005a3.893 3.893 0 0 1 .502.005c.048.003.096.006.143.011.028.002.055.006.082.009l.128.016c.029.004.058.008.087.014.041.006.081.014.122.021l.087.018a4.084 4.084 0 0 1 .321.08l.082.024.12.039.075.026.13.05.061.024c.062.026.125.053.186.082l.013.006c.057.027.112.055.168.084l.059.033.116.065.068.041.104.065.069.046c.033.023.065.044.097.068l.069.05.093.071.066.052c.031.025.061.051.09.077l.062.054.09.084.056.053.096.099.043.044c.045.048.089.098.132.148l.016.02c.037.044.073.089.109.135l.04.055.077.105.044.065.066.101.043.071.059.101.041.074.054.103.038.075.05.108c.011.025.023.049.033.075.017.038.032.077.047.116a2.087 2.087 0 0 1 .075.205l.019.056c.02.064.039.129.056.195l.009.034c.014.055.027.109.039.164l.014.071.02.105h2.963a.263.263 0 0 0 .266-.26v-2.946h-1.124v-1.406h1.124v-1.806c0-.851-.523-1.606-1.333-1.922l-2.697-1.052H30.031v9.392zm0-10.798h9.257l-2.598-5.939a1.84 1.84 0 0 0-1.692-1.09h-4.967v7.03zM11.789 30.594c1.637 0 2.969-1.299 2.969-2.896s-1.332-2.896-2.969-2.896c-.051 0-.102.001-.153.004-1.364.067-2.488 1.038-2.756 2.309a2.812 2.812 0 0 0-.061.583c0 1.597 1.332 2.896 2.969 2.896zM1.441 22.383h1.124v1.406H1.441v3.131c0 .041.035.075.077.075h5.92l.02-.104.014-.072c.012-.054.024-.107.038-.16l.009-.038a4.26 4.26 0 0 1 .056-.193l.02-.058.046-.132.028-.072.046-.114a2.049 2.049 0 0 1 .084-.182l.038-.076.054-.102.042-.074.059-.1a2.156 2.156 0 0 1 .11-.171 1.08 1.08 0 0 1 .044-.066l.076-.104.042-.057.106-.132a3.757 3.757 0 0 1 .15-.171l.043-.045c.032-.033.063-.066.096-.098l.056-.053.089-.083.062-.055c.029-.025.059-.051.09-.075l.066-.053.092-.071.069-.05.096-.067.07-.047c.034-.023.069-.044.103-.065l.069-.042c.038-.023.077-.044.116-.065.02-.011.04-.023.061-.033.055-.029.11-.057.167-.083l.014-.007c.061-.029.123-.056.186-.082l.061-.024.13-.05.076-.026c.039-.014.079-.027.119-.039l.082-.024c.039-.011.078-.023.118-.033.028-.007.056-.015.085-.021l.118-.026.087-.018c.04-.007.081-.015.122-.021l.086-.014.128-.016.082-.009.143-.011.07-.005a3.893 3.893 0 0 1 .502.005c.048.003.096.006.143.011.028.002.055.006.082.009l.128.016c.029.004.058.008.086.014.041.006.081.014.122.021l.087.018a4.084 4.084 0 0 1 .321.08l.082.024c.04.012.08.026.119.039l.076.026.13.05.061.024c.062.026.124.053.186.082l.014.007c.056.026.112.054.167.083l.06.033.116.065.069.042c.035.021.069.042.103.065l.07.047c.032.022.065.044.096.067l.069.05.092.071c.023.017.044.035.066.053.031.025.061.05.09.076l.062.054.09.084.056.053.096.098.043.044c.045.048.089.098.132.148l.017.021c.036.044.073.088.107.134l.042.055.077.105.044.066c.023.033.044.066.066.1l.044.071.059.101.041.074.055.103a2.6 2.6 0 0 1 .087.183 2.343 2.343 0 0 1 .08.191l.028.071c.017.045.032.09.047.135l.019.055c.02.064.039.129.057.195l.007.031c.014.056.028.111.04.168l.013.069.021.106h12.453V6.106c0-.388.323-.703.721-.703h10.419c.018 0 .073 0 .107-.062s.004-.106-.006-.12l-2.255-3.3a1.18 1.18 0 0 0-.977-.51H17.784a.397.397 0 0 0-.278.112l-1.192 1.163a1.845 1.845 0 0 1-1.297.524H2.608c-.643 0-1.167.511-1.167 1.138v18.039z"/>
      <path d="M20.116 7.198h4.558c.921 0 1.67.731 1.67 1.629v15.046a.712.712 0 0 1-.721.703h-6.456a.712.712 0 0 1-.721-.703V8.827c-.001-.899.748-1.629 1.669-1.629zm-.229 15.972h5.015v-8.267h-5.015v8.267zm0-9.673h5.015V8.828a.226.226 0 0 0-.229-.223h-4.558c-.126 0-.229.1-.229.223l.001 4.669z"/>
    </symbol>
    <symbol id="icon-camper-van" viewBox="0 0 46 32">
      <path d="M2.608 1.8h12.409c.105 0 .203-.04.278-.112L16.487.525a1.845 1.845 0 0 1 1.297-.524h18.817c.876 0 1.69.425 2.176 1.136l2.255 3.3c.32.468.349 1.067.077 1.564s-.8.805-1.377.805h-9.698v.956h4.967c1.317 0 2.501.763 3.018 1.945l2.908 6.65 2.548.994c1.36.531 2.24 1.797 2.24 3.227v6.158c0 .918-.766 1.666-1.708 1.666h-2.964c-.345 2.039-2.164 3.599-4.35 3.599s-4.005-1.561-4.35-3.599H16.14c-.345 2.039-2.164 3.599-4.35 3.599s-4.005-1.561-4.35-3.599H1.519c-.837 0-1.518-.664-1.518-1.481V4.345c0-1.403 1.17-2.544 2.608-2.544zm34.084 28.794c1.637 0 2.969-1.299 2.969-2.896s-1.332-2.896-2.969-2.896c-1.637 0-2.969 1.299-2.969 2.896s1.332 2.896 2.969 2.896zm-6.658-3.599h2.307l.02-.105.014-.071c.012-.055.025-.11.039-.164.003-.011.005-.023.009-.034a3.34 3.34 0 0 1 .057-.195l.019-.056a5.274 5.274 0 0 1 .122-.321l.033-.075c.016-.037.032-.072.05-.108l.038-.075.054-.103.041-.074.059-.101.043-.071.066-.101.044-.065.077-.105.04-.055.109-.135.016-.02c.043-.051.087-.1.132-.148l.043-.044.096-.099.056-.053.09-.084.062-.054.09-.077.066-.052.093-.071a1.22 1.22 0 0 1 .069-.05l.097-.068.069-.046c.034-.023.069-.044.104-.065l.068-.041c.038-.023.077-.044.116-.065l.059-.033.168-.084.013-.006c.061-.029.123-.056.186-.082l.061-.024.13-.05.075-.026.12-.039.082-.024c.039-.011.078-.023.118-.033.028-.007.056-.015.085-.021l.118-.026.087-.018c.04-.007.081-.015.122-.021l.086-.014.128-.016.082-.009.143-.011.07-.005a3.893 3.893 0 0 1 .502.005c.048.003.096.006.143.011.028.002.055.006.082.009l.128.016c.029.004.058.008.087.014.041.006.081.014.122.021l.087.018a4.084 4.084 0 0 1 .321.08l.082.024.12.039.075.026.13.05.061.024c.062.026.125.053.186.082l.013.006c.057.027.112.055.168.084l.059.033.116.065.068.041.104.065.069.046c.033.023.065.044.097.068l.069.05.093.071.066.052c.031.025.061.051.09.077l.062.054.09.084.056.053.096.099.043.044c.045.048.089.098.132.148l.016.02c.037.044.073.089.109.135l.04.055.077.105.044.065.066.101.043.071.059.101.041.074.054.103.038.075.05.108c.011.025.023.049.033.075.017.038.032.077.047.116a2.087 2.087 0 0 1 .075.205l.019.056c.02.064.039.129.056.195l.009.034c.014.055.027.109.039.164l.014.071.02.105h2.963a.263.263 0 0 0 .266-.26v-2.946h-1.124v-1.406h1.124v-1.806c0-.851-.523-1.606-1.333-1.922l-2.697-1.052H30.031v9.392zm0-10.798h9.257l-2.598-5.939a1.84 1.84 0 0 0-1.692-1.09h-4.967v7.03zM11.789 30.594c1.637 0 2.969-1.299 2.969-2.896s-1.332-2.896-2.969-2.896c-.051 0-.102.001-.153.004-1.364.067-2.488 1.038-2.756 2.309a2.812 2.812 0 0 0-.061.583c0 1.597 1.332 2.896 2.969 2.896zM1.441 22.383h1.124v1.406H1.441v3.131c0 .041.035.075.077.075h5.92l.02-.104.014-.072c.012-.054.024-.107.038-.16l.009-.038a4.26 4.26 0 0 1 .056-.193l.02-.058.046-.132.028-.072.046-.114a2.049 2.049 0 0 1 .084-.182l.038-.076.054-.102.042-.074.059-.1a2.156 2.156 0 0 1 .11-.171 1.08 1.08 0 0 1 .044-.066l.076-.104.042-.057.106-.132a3.757 3.757 0 0 1 .15-.171l.043-.045c.032-.033.063-.066.096-.098l.056-.053.089-.083.062-.055c.029-.025.059-.051.09-.075l.066-.053.092-.071.069-.05.096-.067.07-.047c.034-.023.069-.044.103-.065l.069-.042c.038-.023.077-.044.116-.065.02-.011.04-.023.061-.033.055-.029.11-.057.167-.083l.014-.007c.061-.029.123-.056.186-.082l.061-.024.13-.05.076-.026c.039-.014.079-.027.119-.039l.082-.024c.039-.011.078-.023.118-.033.028-.007.056-.015.085-.021l.118-.026.087-.018c.04-.007.081-.015.122-.021l.086-.014.128-.016.082-.009.143-.011.07-.005a3.893 3.893 0 0 1 .502.005c.048.003.096.006.143.011.028.002.055.006.082.009l.128.016c.029.004.058.008.086.014.041.006.081.014.122.021l.087.018a4.084 4.084 0 0 1 .321.08l.082.024c.04.012.08.026.119.039l.076.026.13.05.061.024c.062.026.124.053.186.082l.014.007c.056.026.112.054.167.083l.06.033.116.065.069.042c.035.021.069.042.103.065l.07.047c.032.022.065.044.096.067l.069.05.092.071c.023.017.044.035.066.053.031.025.061.05.09.076l.062.054.09.084.056.053.096.098.043.044c.045.048.089.098.132.148l.017.021c.036.044.073.088.107.134l.042.055.077.105.044.066c.023.033.044.066.066.1l.044.071.059.101.041.074.055.103a2.6 2.6 0 0 1 .087.183 2.343 2.343 0 0 1 .08.191l.028.071c.017.045.032.09.047.135l.019.055c.02.064.039.129.057.195l.007.031c.014.056.028.111.04.168l.013.069.021.106h12.453V6.106c0-.388.323-.703.721-.703h10.419c.018 0 .073 0 .107-.062s.004-.106-.006-.12l-2.255-3.3a1.18 1.18 0 0 0-.977-.51H17.784a.397.397 0 0 0-.278.112l-1.192 1.163a1.845 1.845 0 0 1-1.297.524H2.608c-.643 0-1.167.511-1.167 1.138v18.039z"/>
      <path d="M5.536 7.198h8.814c1.019 0 1.848.809 1.848 1.802v4.1c0 .994-.829 1.802-1.848 1.802H5.535c-1.019 0-1.848-.809-1.848-1.802V9c.001-.994.83-1.802 1.848-1.802zM5.129 13.1c0 .218.182.396.406.396h8.814a.402.402 0 0 0 .406-.396V9a.402.402 0 0 0-.406-.396H5.534A.402.402 0 0 0 5.128 9l.001 4.1z"/>
    </symbol>
    <symbol id="icon-ac" viewBox="0 0 32 32">
      <mask id="a" fill="#fff">
    <path d="M15.554 5.3c-1.351 0-2.66.48-3.705 1.359a6.025 6.025 0 0 0-2.027 3.46l-.104.539a.946.946 0 0 0 .119.71.912.912 0 0 0 .58.407.88.88 0 0 0 .69-.146.913.913 0 0 0 .375-.61l.106-.537a4.162 4.162 0 0 1 1.563-2.513 3.973 3.973 0 0 1 5.399.55 4.21 4.21 0 0 1 1.05 2.78 4.21 4.21 0 0 1-1.186 2.937 4 4 0 0 1-2.864 1.218H2.5a.889.889 0 0 0-.636.27.935.935 0 0 0-.264.653c0 .245.095.48.264.653.168.173.397.27.636.27h13.05a5.785 5.785 0 0 0 4.044-1.808 6.083 6.083 0 0 0 1.665-4.19c0-1.566-.596-3.07-1.662-4.192a5.784 5.784 0 0 0-4.043-1.81ZM25.9 13.608a4.444 4.444 0 0 0-3.182 1.351 4.676 4.676 0 0 0-1.318 3.264c0 .245.095.48.264.653.168.173.397.27.636.27a.889.889 0 0 0 .636-.27.935.935 0 0 0 .264-.653c0-.548.158-1.083.455-1.538.297-.456.718-.81 1.212-1.02a2.637 2.637 0 0 1 1.56-.158 2.68 2.68 0 0 1 1.382.758c.378.387.635.88.74 1.418.103.537.05 1.094-.154 1.6-.205.506-.55.938-.995 1.243a2.652 2.652 0 0 1-1.5.466H2.5a.889.889 0 0 0-.636.27.935.935 0 0 0-.264.653c0 .245.095.48.264.653.168.173.397.27.636.27h17.55a2.222 2.222 0 0 1 1.59.68c.42.433.657 1.02.656 1.633a2.338 2.338 0 0 1-.663 1.63 2.221 2.221 0 0 1-1.592.673 2.241 2.241 0 0 1-1.469-.55 2.348 2.348 0 0 1-.775-1.392l-.01-.056a.94.94 0 0 0-.357-.619.892.892 0 0 0-.682-.167.887.887 0 0 0-.592.385.936.936 0 0 0-.143.704l.009.055c.16.975.651 1.86 1.387 2.498a4.015 4.015 0 0 0 2.632.988 4.006 4.006 0 0 0 2.868-1.216 4.216 4.216 0 0 0 1.191-2.938 4.21 4.21 0 0 0-.682-2.308H25.9a4.444 4.444 0 0 0 3.182-1.351 4.676 4.676 0 0 0 1.318-3.264 4.676 4.676 0 0 0-1.318-3.263 4.444 4.444 0 0 0-3.182-1.352Z"/>
  </mask>
  <path fill="#101828" d="M15.554 5.3c-1.351 0-2.66.48-3.705 1.359a6.025 6.025 0 0 0-2.027 3.46l-.104.539a.946.946 0 0 0 .119.71.912.912 0 0 0 .58.407.88.88 0 0 0 .69-.146.913.913 0 0 0 .375-.61l.106-.537a4.162 4.162 0 0 1 1.563-2.513 3.973 3.973 0 0 1 5.399.55 4.21 4.21 0 0 1 1.05 2.78 4.21 4.21 0 0 1-1.186 2.937 4 4 0 0 1-2.864 1.218H2.5a.889.889 0 0 0-.636.27.935.935 0 0 0-.264.653c0 .245.095.48.264.653.168.173.397.27.636.27h13.05a5.785 5.785 0 0 0 4.044-1.808 6.083 6.083 0 0 0 1.665-4.19c0-1.566-.596-3.07-1.662-4.192a5.784 5.784 0 0 0-4.043-1.81ZM25.9 13.608a4.444 4.444 0 0 0-3.182 1.351 4.676 4.676 0 0 0-1.318 3.264c0 .245.095.48.264.653.168.173.397.27.636.27a.889.889 0 0 0 .636-.27.935.935 0 0 0 .264-.653c0-.548.158-1.083.455-1.538.297-.456.718-.81 1.212-1.02a2.637 2.637 0 0 1 1.56-.158 2.68 2.68 0 0 1 1.382.758c.378.387.635.88.74 1.418.103.537.05 1.094-.154 1.6-.205.506-.55.938-.995 1.243a2.652 2.652 0 0 1-1.5.466H2.5a.889.889 0 0 0-.636.27.935.935 0 0 0-.264.653c0 .245.095.48.264.653.168.173.397.27.636.27h17.55a2.222 2.222 0 0 1 1.59.68c.42.433.657 1.02.656 1.633a2.338 2.338 0 0 1-.663 1.63 2.221 2.221 0 0 1-1.592.673 2.241 2.241 0 0 1-1.469-.55 2.348 2.348 0 0 1-.775-1.392l-.01-.056a.94.94 0 0 0-.357-.619.892.892 0 0 0-.682-.167.887.887 0 0 0-.592.385.936.936 0 0 0-.143.704l.009.055c.16.975.651 1.86 1.387 2.498a4.015 4.015 0 0 0 2.632.988 4.006 4.006 0 0 0 2.868-1.216 4.216 4.216 0 0 0 1.191-2.938 4.21 4.21 0 0 0-.682-2.308H25.9a4.444 4.444 0 0 0 3.182-1.351 4.676 4.676 0 0 0 1.318-3.264 4.676 4.676 0 0 0-1.318-3.263 4.444 4.444 0 0 0-3.182-1.352Z"/>
  <path fill="#101828" d="m15.554 5.3.128-4.998L15.617.3h-.064v5Zm-5.732 4.818L4.915 9.16l-.001.008 4.909.95Zm-.104.54 4.873 1.121.02-.085.016-.086-4.909-.95Zm1.764.361-4.905-.97-.018.09-.014.089 4.937.791Zm.106-.537-4.904-.971v.002l4.904.97Zm8.012.816h5v-.012l-5 .012Zm-4.05 4.156v5h.002l-.002-5Zm-13.95.923h-5 5Zm13.95.923v5h.063l.063-.002-.126-4.998Zm7.65.923h5-5ZM1.6 21.915h-5 5Zm18.45.924.01-5h-.01v5Zm-.009 4.615.01-5h-.014l.004 5Zm-2.244-1.942-4.936.802.002.008v.008l4.934-.818Zm-.01-.056-4.956.655.01.074.011.073 4.936-.802Zm-1.774.303 4.935-.802-.012-.072-.014-.071-4.91.945Zm.009.055-4.936.802.002.009 4.934-.81Zm4.02 3.486.001-5h-.003l.001 5Zm4.058-4.154 5 .009v-.009h-5Zm-.682-2.308v-5h-9.235l5.048 7.733 4.187-2.733ZM15.553.3c-2.542 0-4.987.905-6.922 2.532l6.435 7.654a.758.758 0 0 1 .489-.186l-.002-10ZM8.63 2.832A11.025 11.025 0 0 0 4.915 9.16l9.815 1.917c.05-.255.18-.459.336-.59L8.631 2.831ZM4.914 9.168l-.105.539 9.818 1.901.104-.539-9.817-1.901Zm-.069.368a5.946 5.946 0 0 0-.07 2.312l9.864-1.646a4.053 4.053 0 0 1-.048 1.577L4.845 9.536Zm-.07 2.312c.128.768.406 1.507.824 2.173l8.476-5.306c.286.458.476.964.564 1.487l-9.864 1.646Zm.824 2.173c.417.667.967 1.25 1.621 1.708l5.733-8.194c.456.319.835.722 1.122 1.18l-8.476 5.306ZM7.22 15.73c.655.458 1.4.781 2.193.944l2.01-9.796c.554.114 1.075.34 1.53.658L7.22 15.73Zm2.193.944c.792.162 1.61.16 2.4-.008L9.74 6.882a4.122 4.122 0 0 1 1.683-.005l-2.01 9.796Zm2.4-.008A5.89 5.89 0 0 0 14 15.707L8.213 7.55a4.112 4.112 0 0 1 1.526-.669l2.075 9.783ZM14 15.707a5.915 5.915 0 0 0 1.61-1.718L7.1 8.737c.284-.46.66-.865 1.114-1.186L14 15.706Zm1.61-1.718c.413-.669.687-1.41.81-2.178l-9.874-1.583c.084-.524.27-1.03.554-1.49l8.51 5.251Zm.778-2 .106-.537-9.81-1.94-.106.538 9.81 1.939Zm.106-.535a.838.838 0 0 1-.324.502l-6.035-7.974a9.163 9.163 0 0 0-3.45 5.529l9.809 1.943Zm-.324.502c-.192.145-.45.225-.722.197l1.013-9.949a8.973 8.973 0 0 0-6.326 1.778l6.035 7.974Zm-.722.197a.99.99 0 0 1-.641-.32l7.488-6.628a9.011 9.011 0 0 0-5.834-3l-1.013 9.948Zm-.641-.32a.79.79 0 0 1-.206-.523l10-.024a9.21 9.21 0 0 0-2.306-6.081l-7.488 6.628Zm-.206-.535a.79.79 0 0 1 .233-.552l7.162 6.98a9.21 9.21 0 0 0 2.605-6.428h-10Zm.233-.552a1 1 0 0 1 .715-.292l.004 10a9.001 9.001 0 0 0 6.443-2.728l-7.162-6.98Zm.717-.292H2.5v10h13.05v-10Zm-13.05 0c-1.606 0-3.12.655-4.216 1.78l7.16 6.98a4.111 4.111 0 0 1-2.944 1.24v-10Zm-4.216 1.78A5.935 5.935 0 0 0-3.4 16.377h10a4.065 4.065 0 0 1-1.156 2.838l-7.16-6.981ZM-3.4 16.377c0 1.53.592 3.023 1.684 4.143l7.16-6.98A4.065 4.065 0 0 1 6.6 16.376h-10Zm1.684 4.143A5.889 5.889 0 0 0 2.5 22.3v-10c1.129 0 2.185.461 2.944 1.24l-7.16 6.98ZM2.5 22.3h13.05v-10H2.5v10Zm13.176-.002a10.783 10.783 0 0 0 7.54-3.359l-7.244-6.894a.786.786 0 0 1-.547.257l.25 9.996Zm7.54-3.359a11.083 11.083 0 0 0 3.043-7.636l-10-.003c0 .301-.116.566-.287.745l7.244 6.894Zm3.043-7.636c0-2.83-1.076-5.574-3.038-7.637l-7.248 6.889c.17.179.286.444.286.745l10 .003ZM23.22 3.666A10.784 10.784 0 0 0 15.682.302l-.257 9.996a.785.785 0 0 1 .548.257l7.248-6.89Zm2.68 4.942a9.444 9.444 0 0 0-6.763 2.861l7.16 6.981a.558.558 0 0 1-.398.158v-10Zm-6.763 2.861a9.676 9.676 0 0 0-2.738 6.754h10a.326.326 0 0 1-.102.227l-7.16-6.981ZM16.4 18.223c0 1.53.592 3.023 1.684 4.143l7.16-6.98a4.065 4.065 0 0 1 1.156 2.837h-10Zm1.684 4.143a5.889 5.889 0 0 0 4.216 1.78v-10c1.129 0 2.185.461 2.944 1.24l-7.16 6.98Zm4.216 1.78c1.606 0 3.12-.655 4.216-1.78l-7.16-6.98a4.111 4.111 0 0 1 2.944-1.24v10Zm4.216-1.78a5.935 5.935 0 0 0 1.684-4.143h-10c0-1.04.402-2.064 1.157-2.838l7.16 6.981Zm1.684-4.143c0 .414-.119.828-.355 1.19l-8.38-5.458a7.82 7.82 0 0 0-1.265 4.268h10Zm-.355 1.19a2.285 2.285 0 0 1-1.023.854l-3.91-9.204a7.717 7.717 0 0 0-3.446 2.892l8.378 5.459Zm-1.023.854a2.363 2.363 0 0 1-1.395.14l2-9.799a7.637 7.637 0 0 0-4.515.455l3.91 9.204Zm-1.395.14a2.32 2.32 0 0 1-1.198-.652l7.16-6.98a7.68 7.68 0 0 0-3.963-2.167l-1.999 9.798Zm-1.198-.652a2.207 2.207 0 0 1-.59-1.12l9.818-1.904a7.793 7.793 0 0 0-2.068-3.957l-7.16 6.981Zm-.59-1.12c-.078-.408-.039-.833.12-1.225l9.272 3.745a7.835 7.835 0 0 0 .426-4.424l-9.817 1.904Zm.12-1.225c.158-.393.435-.749.815-1.009l5.653 8.249a7.756 7.756 0 0 0 2.804-3.495l-9.273-3.745Zm.815-1.009a2.348 2.348 0 0 1 1.326-.409v10a7.652 7.652 0 0 0 4.327-1.342l-5.653-8.249Zm1.326-.409H2.5v10h23.4v-10Zm-23.4 0c-1.606 0-3.12.656-4.216 1.78l7.16 6.981a4.111 4.111 0 0 1-2.944 1.24v-10Zm-4.216 1.78A5.935 5.935 0 0 0-3.4 21.915h10a4.065 4.065 0 0 1-1.156 2.838l-7.16-6.98ZM-3.4 21.915c0 1.531.592 3.024 1.684 4.144l7.16-6.981A4.065 4.065 0 0 1 6.6 21.915h-10Zm1.684 4.144a5.889 5.889 0 0 0 4.216 1.78v-10c1.129 0 2.185.46 2.944 1.239l-7.16 6.98Zm4.216 1.78h17.55v-10H2.5v10Zm17.54 0A2.778 2.778 0 0 1 18.053 27l7.174-6.967a7.222 7.222 0 0 0-5.167-2.195l-.02 10ZM18.053 27a2.662 2.662 0 0 1-.757-1.86l10 .02a7.338 7.338 0 0 0-2.07-5.127l-7.173 6.967Zm-.757-1.86a2.662 2.662 0 0 1 .764-1.857l7.146 6.995a7.338 7.338 0 0 0 2.09-5.119l-10-.019Zm.764-1.857a2.779 2.779 0 0 1 1.991-.83l-.02 10a7.221 7.221 0 0 0 5.175-2.175l-7.146-6.995Zm1.977-.83c.68 0 1.319.247 1.807.669l-6.543 7.562a7.241 7.241 0 0 0 4.744 1.769l-.008-10Zm1.807.669c.485.42.787.98.885 1.57l-9.865 1.637a7.348 7.348 0 0 0 2.437 4.355l6.543-7.562Zm.888 1.587-.01-.056-9.87 1.604.01.056 9.87-1.604Zm.012.091A5.94 5.94 0 0 0 22 22.61l-8.658 5.002a4.06 4.06 0 0 1-.51-1.5l9.913-1.31ZM22 22.61a5.916 5.916 0 0 0-1.552-1.759l-6.034 7.975a4.085 4.085 0 0 1-1.072-1.214l8.658-5.003Zm-1.552-1.759a5.89 5.89 0 0 0-2.147-1.023l-2.389 9.71a4.11 4.11 0 0 1-1.498-.712l6.034-7.975ZM18.3 19.827a5.878 5.878 0 0 0-2.393-.086l1.682 9.858a4.123 4.123 0 0 1-1.678-.061l2.389-9.71Zm-2.393-.086a5.885 5.885 0 0 0-2.219.868l5.452 8.383c-.466.303-.993.511-1.551.607l-1.682-9.858Zm-2.219.868a5.913 5.913 0 0 0-1.677 1.649l8.289 5.594a4.09 4.09 0 0 1-1.16 1.14l-5.452-8.383Zm-1.677 1.649a5.937 5.937 0 0 0-.896 2.14l9.8 1.989a4.065 4.065 0 0 1-.615 1.465l-8.289-5.594Zm-.896 2.14a5.945 5.945 0 0 0-.012 2.306l9.82-1.89c.1.52.097 1.054-.008 1.573l-9.8-1.99Zm-.038 2.163.01.055 9.87-1.604-.009-.055-9.87 1.604Zm.01.064a9.205 9.205 0 0 0 3.046 5.465l6.552-7.555c.16.138.244.31.27.47l-9.867 1.62Zm3.046 5.465a9.014 9.014 0 0 0 5.91 2.21l-.003-10c.255 0 .482.093.645.235l-6.552 7.555Zm5.906 2.21a9.006 9.006 0 0 0 6.446-2.721l-7.152-6.989c.166-.17.42-.29.71-.29l-.004 10Zm6.446-2.721a9.215 9.215 0 0 0 2.615-6.424l-10-.018c0-.181.07-.38.232-.547l7.153 6.989Zm2.615-6.433a9.21 9.21 0 0 0-1.495-5.04L19.23 25.57a.79.79 0 0 1-.13-.425h10Zm-5.682 2.692H25.9v-10h-2.482v10Zm2.482 0a9.444 9.444 0 0 0 6.762-2.86l-7.16-6.982a.558.558 0 0 1 .398-.157v10Zm6.762-2.86a9.676 9.676 0 0 0 2.738-6.755h-10c0-.062.023-.146.102-.227l7.16 6.981Zm2.738-6.755c0-2.51-.97-4.942-2.738-6.754l-7.16 6.981a.326.326 0 0 1-.102-.227h10Zm-2.738-6.754A9.444 9.444 0 0 0 25.9 8.608v10a.558.558 0 0 1-.398-.158l7.16-6.981Z" mask="url(#a)"/>
    </symbol>
    <symbol id="icon-water" viewBox="0 0 32 32">
      <path stroke-miterlimit="10" stroke-width="2.4" d="M25 20c0 5.523-3.477 9-9 9s-9-3.477-9-9c0-5.927 6.452-13.928 8.431-16.242a.763.763 0 0 1 .57-.263.744.744 0 0 1 .57.263c1.978 2.314 8.43 10.316 8.43 16.242z"/>
      <path stroke-linecap="round" stroke-linejoin="round" stroke-width="2.4" d="M21.5 20.5A4.5 4.5 0 0 1 17 25"/>
    </symbol>
    <symbol id="icon-users" viewBox="0 0 32 32">
      <path d="M9.067 24.133h-4.4c-.267 0-.4-.133-.533-.267s-.267-.4-.133-.667c.8-2.267 2.8-3.6 5.067-3.6 2.8 0 5.067-2.4 5.067-5.2s-2.267-5.467-5.067-5.467c-2.8 0-5.067 2.4-5.067 5.333a5.69 5.69 0 0 0 1.333 3.6c-1.733.933-3.067 2.4-3.867 4.4-.267.933-.133 2.133.533 3.067s1.6 1.467 2.667 1.467h4.4c.8 0 1.333-.533 1.333-1.333s-.533-1.333-1.333-1.333zm-2.4-9.866c0-1.467 1.067-2.533 2.4-2.533s2.4 1.2 2.4 2.533c0 1.467-1.067 2.533-2.4 2.533s-2.4-1.2-2.4-2.533z"/>
      <path d="M30.533 21.467c-.933-2.533-2.8-4.4-4.933-5.467 1.2-1.067 1.867-2.667 1.867-4.533C27.467 8 24.8 5.2 21.6 5.2s-5.867 2.8-5.867 6.267A6.35 6.35 0 0 0 17.6 16c-2.133 1.067-4 2.933-4.933 5.467-.667 1.2-.4 2.533.267 3.6s1.867 1.6 3.067 1.6h11.067c1.2 0 2.4-.667 3.067-1.6.8-1.067.933-2.4.4-3.6zM18.267 11.6c0-2 1.467-3.6 3.2-3.6s3.2 1.6 3.2 3.6-1.467 3.6-3.2 3.6-3.2-1.733-3.2-3.6zm9.6 12c-.133.133-.4.533-.8.533H16c-.533 0-.8-.4-.8-.533-.133-.133-.4-.667-.133-1.2 1.067-2.8 3.733-4.667 6.533-4.667s5.467 1.867 6.533 4.667c.133.533-.133 1.067-.267 1.2z"/>
    </symbol>
    <symbol id="icon-toilet" viewBox="0 0 32 32">
      <path d="M24 4c1.939 0 3.269 1.647 4.04 3.313.761 1.653 1.224 3.811 1.287 6.145l.007.541v12.667a1.343 1.343 0 0 1-.409.962 1.352 1.352 0 0 1-.978.371l-.165-.019-3.781-.629-3.781.629a1.33 1.33 0 0 1-.483-.008l-.157-.041-3.579-1.193-3.579 1.193a1.327 1.327 0 0 1-1.135-.138 1.323 1.323 0 0 1-.61-.968l-.009-.159v-3.903c-.708.733-1.595 1.236-2.667 1.236-1.939 0-3.269-1.647-4.04-3.313-.819-1.78-1.293-4.145-1.293-6.687s.473-4.907 1.293-6.687c.735-1.592 1.981-3.164 3.78-3.303l.26-.011h16zm0 2.667H11.709c.12.213.229.429.329.647.821 1.78 1.295 4.145 1.295 6.687v10.817l2.245-.749c.274-.091.569-.091.843 0l3.687 1.229 3.673-.613c.144-.024.293-.024.437 0l2.448.409V14.001c0-2.245-.423-4.213-1.049-5.569C24.94 6.961 24.27 6.668 24 6.668zm-16 0c-.271 0-.94.293-1.617 1.764C5.756 9.787 5.334 11.755 5.334 14s.423 4.213 1.049 5.569C7.06 21.04 7.73 21.333 8 21.333s.94-.293 1.617-1.764c.627-1.356 1.049-3.324 1.049-5.569s-.423-4.213-1.049-5.569C8.94 6.96 8.27 6.667 8 6.667zm0 4.666c.736 0 1.333 1.193 1.333 2.667S8.736 16.667 8 16.667 6.667 15.474 6.667 14 7.264 11.333 8 11.333z"/>
    </symbol>
    <symbol id="icon-route" viewBox="0 0 32 32">
      <path d="M6.667 4a2.667 2.667 0 1 0 0 5.334 2.667 2.667 0 0 0 0-5.334zM1.333 6.667a5.333 5.333 0 1 1 10.666 0 5.333 5.333 0 0 1-10.666 0zM25.333 22.667a2.667 2.667 0 1 0 0 5.334 2.667 2.667 0 0 0 0-5.334zM20 25.333a5.333 5.333 0 1 1 10.667 0 5.333 5.333 0 0 1-10.667 0z"/>
      <path d="M13.333 6.667c0-.736.597-1.333 1.333-1.333h8.4c4.13 0 5.62 5.404 1.987 7.429L9.58 21.567a1.295 1.295 0 0 0 .686 2.434h7.067a1.333 1.333 0 0 1 0 2.666h-7.067c-4.13 0-5.619-5.404-1.987-7.429l15.473-8.804A1.295 1.295 0 0 0 23.066 8h-8.4a1.333 1.333 0 0 1-1.333-1.333z"/>
    </symbol>
    <symbol id="icon-radio" viewBox="0 0 32 32">
      <path stroke-width="2.08" d="M2.667 18.667c0-5.028 0-7.543 1.563-9.104C5.791 8 8.306 8 13.334 8h5.333c5.028 0 7.543 0 9.104 1.563 1.563 1.561 1.563 4.076 1.563 9.104s0 7.543-1.563 9.104c-1.561 1.563-4.076 1.563-9.104 1.563h-5.333c-5.028 0-7.543 0-9.104-1.563-1.563-1.561-1.563-4.076-1.563-9.104z"/>
      <path stroke-width="2.08" d="M6.667 14.667A2.668 2.668 0 0 1 9.334 12h13.333a2.668 2.668 0 0 1 0 5.334H9.334a2.668 2.668 0 0 1-2.667-2.667zm5.333 8a2 2 0 1 1-4.001-.001 2 2 0 0 1 4.001.001z"/>
      <path stroke-linecap="round" stroke-width="2.08" d="M20 15.333v2m-2.667 5.334H24M8.667 8 20 2.667"/>
    </symbol>
    <symbol id="icon-plate" viewBox="0 0 32 32">
      <path fill="none" stroke="#101828" stroke-width="2.4" d="M12 6.667h16a1.335 1.335 0 0 1 1.334 1.334v17.333A1.335 1.335 0 0 1 28 26.668H12m0-20.001H4a1.33 1.33 0 0 0-1.333 1.334v17.333A1.333 1.333 0 0 0 4 26.668h8m0-20.001v20" style="stroke:var(--color2, #101828)"/>
      <path fill="none" stroke="#101828" stroke-linecap="round" stroke-linejoin="round" stroke-width="2.4" d="M7.333 11.333V14m17.334-3.333-8 11.333" style="stroke:var(--color2, #101828)"/>
      <path d="M8.667 18A1.333 1.333 0 1 0 6 18a1.333 1.333 0 0 0 2.667 0zM8.667 22A1.333 1.333 0 1 0 6 22a1.333 1.333 0 0 0 2.667 0z"/>
    </symbol>
    <symbol id="icon-petrol" viewBox="0 0 32 32">
      <path d="m26.36 9.64.013-.013-4.96-4.96L20 6.08l2.813 2.813a3.324 3.324 0 0 0-1.17 5.464 3.333 3.333 0 0 0 2.357.976c.48 0 .92-.107 1.333-.28v9.613a1.335 1.335 0 0 1-2.277.943 1.335 1.335 0 0 1-.391-.943v-6a2.668 2.668 0 0 0-2.667-2.667h-1.333V6.666a2.668 2.668 0 0 0-2.667-2.667h-8a2.668 2.668 0 0 0-2.667 2.667v21.333h13.333v-10h2v6.667a3.333 3.333 0 1 0 6.667-.001V11.998c0-.92-.373-1.76-.973-2.36zM16 18v7.333H8V16h8v2zm0-4.667H8V6.666h8v6.667zm8 0a1.333 1.333 0 1 1-.002-2.665A1.333 1.333 0 0 1 24 13.333z"/>
    </symbol>
    <symbol id="icon-microwave" viewBox="0 0 32 32">
      <path stroke-linecap="round" stroke-linejoin="round" stroke-width="2.24" d="M29.714 5.714H2.285a1.14 1.14 0 0 0-1.143 1.143v18.286a1.14 1.14 0 0 0 1.143 1.143h27.429a1.14 1.14 0 0 0 1.143-1.143V6.857a1.14 1.14 0 0 0-1.143-1.143z"/>
      <path stroke-linecap="round" stroke-linejoin="round" stroke-width="2.24" d="M25.143 11.428h1.143M25.143 16h1.143m-6.858-5.714H6.857a1.14 1.14 0 0 0-1.143 1.143v9.143a1.14 1.14 0 0 0 1.143 1.143h12.571a1.14 1.14 0 0 0 1.143-1.143v-9.143a1.14 1.14 0 0 0-1.143-1.143z"/>
    </symbol>
    <symbol id="icon-map-pin" viewBox="0 0 29 32">
      <path stroke-linecap="round" stroke-linejoin="round" stroke-width="2.4" d="M26.4 13.333c0 9.333-12 17.333-12 17.333s-12-8-12-17.333a12.003 12.003 0 0 1 12-12 12.003 12.003 0 0 1 12 12z"/>
      <path stroke-linecap="round" stroke-linejoin="round" stroke-width="2.4" d="M14.4 17.333a4 4 0 1 0 0-8 4 4 0 0 0 0 8z"/>
    </symbol>
    <symbol id="icon-kitchen" viewBox="0 0 32 32">
      <path stroke-linecap="round" stroke-linejoin="round" stroke-width="2.4" d="M25.333 20V4c-6.421 6.125-6.697 11.092-6.667 16h6.667zm0 0v8H24v-4M10.667 5.333V28m-4-22.667v4a4.003 4.003 0 0 0 4 4 4.003 4.003 0 0 0 4-4v-4"/>
    </symbol>
    <symbol id="icon-gas" viewBox="0 0 32 32">
      <path d="M25.072 13.991c-.368-.453-.816-.846-1.232-1.239-1.072-.907-2.288-1.556-3.311-2.508-2.384-2.206-2.912-5.848-1.392-8.644-1.52.348-2.848 1.133-3.983 1.995-4.143 3.143-5.775 8.689-3.823 13.449.064.151.128.302.128.499 0 .332-.24.635-.56.756-.368.151-.752.06-1.056-.181a.901.901 0 0 1-.224-.257c-1.808-2.161-2.096-5.259-.88-7.737-2.672 2.055-4.127 5.531-3.919 8.81.096.756.192 1.511.464 2.267.224.907.656 1.813 1.136 2.614 1.728 2.614 4.719 4.488 7.935 4.866 3.423.408 7.087-.181 9.71-2.418 2.927-2.508 3.951-6.528 2.448-9.974l-.208-.393c-.336-.695-1.232-1.904-1.232-1.904zm-5.055 9.521c-.448.363-1.184.756-1.76.907-1.792.604-3.583-.242-4.639-1.239 1.904-.423 3.039-1.753 3.375-3.098.272-1.209-.24-2.206-.448-3.37-.192-1.118-.16-2.07.272-3.113.304.574.624 1.148 1.008 1.602 1.232 1.511 3.167 2.176 3.583 4.231.064.212.096.423.096.65.048 1.239-.528 2.599-1.488 3.43z"/>
    </symbol>
    <symbol id="icon-freezer" viewBox="0 0 32 32">
      <path stroke-linecap="round" stroke-linejoin="round" stroke-width="2.08" d="M23.4 3H8.607a2 2 0 0 0-2 2v20.387a2 2 0 0 0 2 2H23.4a2 2 0 0 0 2-2V5a2 2 0 0 0-2-2z"/>
      <path stroke-linecap="round" stroke-linejoin="round" stroke-width="2.08" d="M6.607 13.127h18.787m-15.081-2.56v-4.04m0 12.913V15.4M8.427 27.387v.7a.911.911 0 0 0 .907.913h1.647a.911.911 0 0 0 .914-.914v-.7m8.205.001v.7a.913.913 0 0 0 .914.914h1.653a.913.913 0 0 0 .914-.914v-.7"/>
    </symbol>
    <symbol id="icon-conditioner" viewBox="0 0 32 32">
      <path stroke-linecap="round" stroke-linejoin="round" stroke-width="2.4" d="M28.571 1.143H3.428a2.287 2.287 0 0 0-2.285 2.285v11.429a2.287 2.287 0 0 0 2.285 2.285h25.143a2.287 2.287 0 0 0 2.286-2.285V3.428a2.283 2.283 0 0 0-2.286-2.285z"/>
      <path stroke-linecap="round" stroke-linejoin="round" stroke-width="2.4" d="M25.143 17.143v-4.571a2.283 2.283 0 0 0-2.286-2.285H9.143a2.287 2.287 0 0 0-2.285 2.285v4.571M5.714 28.572h.229a3.2 3.2 0 0 0 3.2-3.2v-2.514m17.143 5.714h-.229a3.2 3.2 0 0 1-3.2-3.2v-2.514M16 30.857v-8"/>
    </symbol>
    <symbol id="icon-cd" viewBox="0 0 32 32">
      <path stroke-width="2.4" d="M16 28c6.627 0 12-5.373 12-12S22.627 4 16 4 4 9.373 4 16s5.373 12 12 12z"/>
      <path stroke-linecap="round" stroke-width="2.4" d="M8.667 16A7.333 7.333 0 0 1 16 8.667"/>
      <path stroke-width="2.4" d="M16 19.333a3.333 3.333 0 1 0 0-6.665 3.333 3.333 0 0 0 0 6.665z"/>
    </symbol>
    <symbol id="icon-calendar" viewBox="0 0 32 32">
      <path stroke-linecap="round" stroke-linejoin="round" stroke-width="2.4" d="M25.333 5.333H6.666A2.667 2.667 0 0 0 3.999 8v18.667a2.667 2.667 0 0 0 2.667 2.667h18.667A2.667 2.667 0 0 0 28 26.667V8a2.667 2.667 0 0 0-2.667-2.667zM21.333 2.667V8M10.667 2.667V8M4 13.333h24"/>
    </symbol>
    <symbol id="icon-bed" viewBox="0 0 32 32">
      <path stroke-linecap="round" stroke-linejoin="round" stroke-width="2.24" d="M3 26v-7a4.012 4.012 0 0 1 4-4h18a4.012 4.012 0 0 1 4 4v7m-5-11H6V8.5A2.504 2.504 0 0 1 8.5 6h15A2.504 2.504 0 0 1 26 8.5V15h-2z"/>
      <path stroke-linecap="round" stroke-linejoin="round" stroke-width="2.24" d="M3 26v-.5A1.504 1.504 0 0 1 4.5 24h23a1.504 1.504 0 0 1 1.5 1.5v.5M7 15v-1a2.002 2.002 0 0 1 2-2h5a2.002 2.002 0 0 1 2 2m0 0v1m0-1a2.008 2.008 0 0 1 2-2h5a2.002 2.002 0 0 1 2 2v1"/>
    </symbol>
    <symbol id="icon-automatic" viewBox="0 0 32 32">
      <path stroke-linecap="round" stroke-linejoin="round" stroke-width="2.4" d="M22.667 14.667h2a2 2 0 0 0 0-4h-2v6.667m0 5.333V28H24a2.668 2.668 0 0 0 0-5.334h-1.333zM4 6.667a2.668 2.668 0 1 0 5.336 0 2.668 2.668 0 0 0-5.336 0z"/>
      <path stroke-linecap="round" stroke-linejoin="round" stroke-width="2.4" d="M6.667 9.333v4a1.335 1.335 0 0 0 1.334 1.334h4m-.001 0V24a1.33 1.33 0 0 0 1.334 1.333h4M12 14.667h5.333"/>
    </symbol>
    <symbol id="icon-close" viewBox="0 0 32 32">
      <path stroke="#101828" stroke-linecap="round" stroke-linejoin="round" stroke-width="3" d="M24 8 8 24M8 8l16 16"/>
    </symbol>
  </defs>
</svg>
